<svg width="840" height="667" viewBox="0 0 840 667" fill="none" xmlns="http://www.w3.org/2000/svg">
<path fill-rule="evenodd" clip-rule="evenodd" d="M407 0.593996C362.484 4.397 326.659 16.714 293 39.787C213.78 94.092 177.937 192.682 203.668 285.5C235.076 398.796 349.189 468.308 465.407 444.94L480.315 441.943L484.174 444.496C509.168 461.037 540.432 435.613 529.857 407.347C518.941 378.171 475.617 383.546 470.526 414.708C469.765 419.365 470.08 419.183 459 421.384C332.899 446.435 216.124 347.203 220.29 218.535C225.787 48.786 426.019 -36.686 553.755 76.191C600.42 117.427 627.143 187.214 618.97 246.5C616.679 263.114 616.636 265.574 618.573 268.855C623.243 276.761 635.447 276.837 639.507 268.986C644.142 260.024 645.922 217.475 642.618 194.647C627.897 92.947 549.654 15.529 448 2.082C439.454 0.951996 413.739 0.0189961 407 0.593996ZM395.92 57.013C367.151 61.865 361.221 101.756 387.277 115.159C400.762 122.096 422.812 115.525 427.989 103.026C429.444 99.513 429.153 99.549 440.29 101.491C530.41 117.207 574.276 218.886 523.681 294.789C480.293 359.881 387.15 368.886 331.651 313.354C307.011 288.7 295.459 260.273 295.542 224.5C295.589 204.094 296.838 197.263 303.991 178.281C308.566 166.14 308.729 164.708 306.04 160.299C300.182 150.69 288.904 152.381 283.539 163.672C248.271 237.904 285.024 330.78 362.452 363.087C474.954 410.028 594.108 308.345 565.423 189.877C550.78 129.406 497.136 81.808 437.539 76.407C429.963 75.721 429.878 75.682 427.989 71.979C422.689 61.59 408.379 54.912 395.92 57.013ZM409.477 150.923C364.97 158.041 335.951 202.124 347.877 244.5C359.028 284.12 400.09 307.753 439.355 297.149C478.679 286.53 503.037 244.262 492.137 205.557C481.962 169.427 445.297 145.194 409.477 150.923ZM407.265 176.542C370.099 186.551 357.543 233.152 384.696 260.304C416.017 291.626 470 269.285 470 225C470 192.516 438.447 168.144 407.265 176.542ZM46.123 511.149C10.211 513.884 -1.29 525.989 1.398 558.223C2.894 576.157 5.826 581.841 16.189 586.889C27.005 592.159 35.738 592.991 91.045 594.024C166.575 595.434 166.419 595.381 166.377 619.943C166.326 649.013 161.579 651.004 92.5 650.914C28.316 650.831 21.969 648.614 20.376 625.718C19.498 613.097 20.309 614 9.852 614H0.742001L1.435 622.25C3.695 649.159 10.904 658.593 33.172 663.783C44.188 666.351 142.812 666.351 153.828 663.783C177.383 658.293 184.843 647.968 184.965 620.692C185.132 583.396 174.9 578.056 103.105 577.969C89.022 577.951 68.275 577.525 57 577.022C22.97 575.502 19.821 573.41 19.864 552.342C19.898 535.989 23.242 530.461 34.69 527.833C44.859 525.5 145.034 525.934 151.267 528.339C159.159 531.384 162.085 536.844 163.548 551.25L164.233 558H182L181.965 552.75C181.821 531.082 174.591 518.734 159.279 514.004C147.397 510.335 79.352 508.617 46.123 511.149ZM215.228 580.25C215.571 647.254 215.363 645.416 223.499 653.552C231.806 661.859 249.897 665.35 273.752 663.249C301.194 660.832 306.407 654.816 308.413 623.25L308.937 615H292.247L291.823 626.87C291.368 639.628 290.434 642.359 285.397 645.659C281.927 647.933 263.435 649.236 251.764 648.028C233.306 646.118 233.103 645.597 233.044 599.75L233 566H302V551H233V521H214.925L215.228 580.25ZM590.228 580.25C590.57 647.136 590.356 645.213 598.387 653.489C606.471 661.82 625.471 665.472 649.242 663.262C676.199 660.757 681.418 654.646 683.413 623.25L683.937 615H667.247L666.819 627C666.134 646.216 663.663 648.119 639.255 648.236C607.751 648.387 608 648.779 608 599.057V566H677V551H608V521H589.925L590.228 580.25ZM394 550.072C374.195 550.966 366.99 553.498 360.833 561.731L357.5 566.187L357.208 558.593L356.916 551H339V664H356.9L357.2 621.75C357.485 581.594 357.599 579.332 359.5 576.105C364.015 568.44 371.179 566.181 393.75 565.305L409 564.713V557.415C409 553.402 408.663 549.971 408.25 549.791C407.837 549.61 401.425 549.737 394 550.072ZM474.401 550.012C447.959 551.887 438 559.255 438 576.943V581H455.74L456.247 576.501C457.213 567.932 460.822 566.231 480.873 564.896C498.208 563.741 518.228 564.544 526.266 566.715C536.286 569.422 540.114 576.247 541.501 593.876L542.159 602.252L538.388 601.545C524.413 598.923 480.402 598.029 463.974 600.034C441.68 602.754 434.206 609.804 433.215 629.049C431.803 656.464 441.68 663.84 482.111 665.563C508.896 666.704 530.845 663.807 538.908 658.065L542 655.864V664H560.193L559.725 624.75C559.132 575.061 557.459 566.855 546.184 558.294C535.844 550.445 510.139 547.479 474.401 550.012ZM753.401 550.012C726.959 551.887 717 559.255 717 576.943V581H734.74L735.247 576.501C736.213 567.932 739.822 566.231 759.873 564.896C777.208 563.741 797.228 564.544 805.266 566.715C815.286 569.422 819.114 576.247 820.501 593.876L821.159 602.252L817.388 601.545C803.413 598.923 759.402 598.029 742.974 600.034C720.68 602.754 713.206 609.804 712.215 629.049C710.803 656.464 720.68 663.84 761.111 665.563C787.896 666.704 809.845 663.807 817.908 658.065L821 655.864V664H839.193L838.725 624.75C838.132 575.061 836.459 566.855 825.184 558.294C814.844 550.445 789.139 547.479 753.401 550.012ZM458.424 615.895C453.008 618.355 451.5 622.09 451.5 633.045C451.5 649.897 451.772 650 496.218 649.998C541.962 649.996 541.024 650.458 541.802 627.532L542.261 614L502.38 614.022C465.73 614.042 462.17 614.194 458.424 615.895ZM737.348 616.057C731.906 618.75 730.5 622.239 730.5 633.045C730.5 649.897 730.772 650 775.218 649.998C820.962 649.996 820.024 650.458 820.802 627.532L821.261 614L781.38 614.001C743.158 614.002 741.327 614.087 737.348 616.057Z" fill="white"/>
</svg>
